<?xml version="1.0" encoding="UTF-8"?>
<svg id="Layer_1" data-name="Layer 1" xmlns="http://www.w3.org/2000/svg" xmlns:xlink="http://www.w3.org/1999/xlink" viewBox="0 0 469.75 384.29">
  <defs>
    <style>
      .cls-1 {
        fill: url(#linear-gradient-8);
      }

      .cls-2 {
        fill: url(#linear-gradient-7);
      }

      .cls-3 {
        fill: url(#linear-gradient-5);
      }

      .cls-4 {
        fill: url(#linear-gradient-6);
      }

      .cls-5 {
        fill: url(#linear-gradient-4);
      }

      .cls-6 {
        fill: url(#linear-gradient-3);
      }

      .cls-7 {
        fill: url(#linear-gradient-2);
      }

      .cls-8 {
        fill: url(#linear-gradient);
      }
    </style>
    <linearGradient id="linear-gradient" x1="352.43" y1="-48.32" x2="392.05" y2="452.56" gradientUnits="userSpaceOnUse">
      <stop offset="0" stop-color="#4fe7f3"/>
      <stop offset=".5" stop-color="#8c5eff"/>
      <stop offset="1" stop-color="#c938e7"/>
    </linearGradient>
    <linearGradient id="linear-gradient-2" x1="188.24" y1="-35.28" x2="227.86" y2="465.59" xlink:href="#linear-gradient"/>
    <linearGradient id="linear-gradient-3" x1="143.81" y1="-31.82" x2="183.43" y2="469.06" xlink:href="#linear-gradient"/>
    <linearGradient id="linear-gradient-4" x1="143.38" y1="-31.78" x2="183" y2="469.1" xlink:href="#linear-gradient"/>
    <linearGradient id="linear-gradient-5" x1="194.09" y1="-35.79" x2="233.71" y2="465.08" xlink:href="#linear-gradient"/>
    <linearGradient id="linear-gradient-6" x1="249.52" y1="-40.17" x2="289.13" y2="460.7" xlink:href="#linear-gradient"/>
    <linearGradient id="linear-gradient-7" x1="309.72" y1="-44.95" x2="349.34" y2="455.94" xlink:href="#linear-gradient"/>
    <linearGradient id="linear-gradient-8" x1="297.78" y1="-44.01" x2="337.4" y2="456.89" xlink:href="#linear-gradient"/>
  </defs>
  <path class="cls-8" d="M365.39,250.16c-14.5,0-27.63-5.82-37.2-15.25-3.89,15-14.86,27.12-29.12,32.66l132.65-11.97c10.22.02,18.89-6.23,21.85-15.3l.74-183.9c.03-11.82-9.54-21.43-21.36-21.45l-168.11-7.37v1.04c10.98,3.46,18.94,13.72,18.94,25.84,0,3.6-.71,7.02-1.99,10.16,8.56-11.17,22.03-18.38,37.19-18.38,25.86,0,46.82,20.96,46.82,46.82,0,11.85-4.41,22.66-11.67,30.91,3.87,5.77,6.12,12.7,6.12,20.16,0,.08,0,.17,0,.25,1.7-.16,3.41-.25,5.15-.25,29.28,0,53.01,23.73,53.01,53.01s-23.74,53.01-53.01,53.01Z"/>
  <path class="cls-7" d="M341.59,204.97c3.5,13.66,16.07,23.57,30.75,23.15,17.02-.5,30.42-14.71,29.92-31.73-.5-17.02-14.7-30.42-31.73-29.93-15.06.44-27.25,11.6-29.54,25.95-70.75,2.19-133.57,4.72-184.96,7.14l-.18-42.67c-14.82-.27-28.72-.6-41.69-.96l-.08,45.7c-57.9,3-94.62,5.58-102.31,6.72,17.18,1.41,146.16,1.7,329.82-3.36ZM371.01,182.59c8.12-.24,14.89,6.15,15.13,14.27.24,8.11-6.15,14.89-14.27,15.13-8.12.24-14.89-6.15-15.13-14.27-.24-8.12,6.15-14.89,14.27-15.12Z"/>
  <path class="cls-6" d="M277.62,261.8c11.45-.63,20.22-10.42,19.59-21.88-.63-11.45-10.42-20.23-21.87-19.6-10.13.56-18.14,8.28-19.44,17.98-36.79,2.09-70.35,4.23-99.67,6.25l-.13-30.78c-14.92.19-28.96.34-42.04.45l-.06,33.38c-45.06,3.41-73.83,6.13-79.45,7.11,11.59.65,98.42-1.38,221.96-7.97,2.6,9.13,11.22,15.59,21.1,15.05ZM275.93,231.18c5.46-.3,10.13,3.88,10.43,9.34.3,5.46-3.88,10.13-9.34,10.43-5.46.3-10.13-3.88-10.43-9.34-.3-5.46,3.88-10.13,9.34-10.43Z"/>
  <path class="cls-5" d="M245.42,152.46c4.75,13.9,17.91,23.9,33.42,23.9,19.5,0,35.31-15.81,35.31-35.31s-15.81-35.31-35.31-35.31c-16.99,0-31.17,11.99-34.54,27.97-32.73.16-62.2.67-88.53,1.38l-.18-41.91c-15.04-.26-28.85-.54-41.31-.83l-.08,44.09c-59.22,2.3-97.06,5.39-114.2,6.63,26.82,4.02,108.35,8.81,245.42,9.38ZM278.83,124.21c9.3,0,16.83,7.54,16.83,16.83s-7.54,16.83-16.83,16.83-16.83-7.54-16.83-16.83,7.54-16.83,16.83-16.83Z"/>
  <path class="cls-3" d="M155.44,58.52c-14.79-.31-28.53-.64-41.1-.99l-.04,24.31c-34.92.9-56.95,1.86-62.12,2.47,13.27,1.48,113.17,4.63,255.54,4.87,2.41,10.66,11.91,18.62,23.3,18.62,13.2,0,23.9-10.7,23.9-23.9s-10.7-23.9-23.9-23.9c-11.67,0-21.37,8.37-23.47,19.43-58.85.1-110.64.71-152.01,1.49l-.09-22.41ZM331.01,72.52c6.29,0,11.39,5.1,11.39,11.39s-5.1,11.39-11.39,11.39-11.4-5.1-11.4-11.39,5.1-11.39,11.4-11.39Z"/>
  <path class="cls-4" d="M469.75,43.36c.03-14.49-11.69-26.26-26.18-26.28L140.68,0c-14.49-.03-26.25,11.69-26.28,26.18l-.04,20.9c-40.56.41-66.51,1.17-71.52,1.71,5.55.68,31.31,1.94,71.51,3.14v.28c2.51-.02,5.1-.04,7.71-.05,30.75.87,69.06,1.69,112.69,2.2,1.73,8.02,8.81,14.08,17.36,14.16,9.92.1,18.03-7.86,18.13-17.77.1-9.91-7.86-18.03-17.77-18.13-8.77-.09-16.11,6.13-17.77,14.42-28.95-.24-55.6-.29-79.3-.22l-.03-6.5c.02-12.42,10.11-22.46,22.53-22.44l259.6,11.37c12.42.02,22.46,10.11,22.43,22.53l-.78,193.12c-3.11,9.53-12.21,16.09-22.94,16.07l-257.05,23.19c-10.68-.02-19.71-7.01-22.83-16.65l-.05-11.28c-15.16.65-29.32,1.21-42.29,1.68l-.03,18.29-.02,10.12c-.03,14.49,11.69,26.26,26.18,26.28l302.89-32.62c14.49.03,26.25-10.92,26.28-25.41l.03-11v-.71s.06-21.59.06-21.59h0l.4-177.92ZM252.37,42.01c4.72.05,8.52,3.92,8.47,8.64-.05,4.73-3.92,8.52-8.64,8.47-4.72-.05-8.52-3.92-8.47-8.64.05-4.73,3.92-8.52,8.64-8.47Z"/>
  <path class="cls-2" d="M360.45,295.5l-93.41,10.06c-6.37,12.54-16.37,33.03-19.05,43.05-3.47,12.96,12,14.93,12,14.93,0,0,32.04,3.86,39.14,4.89,12.24,1.78,23.58.21,23.58.21l112.31-14.01-78.85-6.02s-25.21-.67-20.24-10.26c3.46-6.68,16.78-29.58,24.53-42.84Z"/>
  <path class="cls-1" d="M440.69,355.8l-123.87,16.76s-11.33,1.58-23.58-.2c-7.11-1.04-39.14-4.9-39.14-4.9,0,0-15.47-1.97-12-14.92,2.95-11.02,14.74-34.68,20.83-46.53l-27.6,2.97c-10.77,18.56-20.21,47.49-20.21,47.49,0,0-6.39,15.63,12.43,18.47,18.82,2.84,67.48,8.88,67.48,8.88,0,0,10.65,1.07,18.11,0,7.46-1.07,127.55-18.43,127.55-18.43,0,0,4.92-.22,4.91-5.43,0-4.23-4.91-4.16-4.91-4.16Z"/>
</svg>